<?xml version="1.0" encoding="UTF-8"?>
<svg id="Layer_1" xmlns="http://www.w3.org/2000/svg" viewBox="0 0 512 152">
    <defs>
        <style>
            .cls-1 {
                fill: #fff;
                stroke-width: 0px;
            }
        </style>
    </defs>
    <path class="cls-1"
        d="M203.28,37.21c-16.08,0-29.16,13.08-29.16,29.16v51.5h18.61v-24.32c3.27,1.27,6.83,1.98,10.55,1.98,16.08,0,29.16-13.08,29.16-29.16s-13.08-29.16-29.16-29.16ZM203.28,76.92c-5.82,0-10.55-4.73-10.55-10.55s4.73-10.55,10.55-10.55,10.55,4.73,10.55,10.55-4.73,10.55-10.55,10.55Z" />
    <path class="cls-1"
        d="M296.35,58.31c-16.42,0-29.78,13.36-29.78,29.78s13.36,29.78,29.78,29.78,29.78-13.36,29.78-29.78-13.36-29.78-29.78-29.78ZM296.35,99.26c-6.16,0-11.17-5.01-11.17-11.17s5.01-11.17,11.17-11.17,11.17,5.01,11.17,11.17-5.01,11.17-11.17,11.17Z" />
    <path class="cls-1"
        d="M411.75,58.31c-16.42,0-29.78,13.36-29.78,29.78s13.36,29.78,29.78,29.78,29.78-13.36,29.78-29.78-13.36-29.78-29.78-29.78ZM411.75,99.26c-6.16,0-11.17-5.01-11.17-11.17s5.01-11.17,11.17-11.17,11.17,5.01,11.17,11.17-5.01,11.17-11.17,11.17Z" />
    <rect class="cls-1" x="239.89" y="37.21" width="18.61" height="80.66" />
    <path class="cls-1"
        d="M359.39,98.47c-2.24-1.12-3.38-3.78-3.38-7.9v-13.65h16.03v-18.61h-16.03v-16.13h-18.61v16.13h-6.93v18.61h6.93v13.65c0,11.28,4.99,20.23,13.7,24.57,3.62,1.8,7.65,2.68,11.71,2.68,5.92,0,11.9-1.88,16.71-5.51l-11.22-14.85c-2.4,1.81-6.39,2.27-8.9,1.02Z" />
    <path class="cls-1"
        d="M500.81,67.88c-5.24-4.7-12.31-7.29-19.91-7.29-4.5,0-9.07.93-13.3,2.74v-5.02h-18.61v59.56h18.61v-26.06c0-9.97,8.7-12.61,13.3-12.61,3,0,5.65.9,7.47,2.53,2,1.8,3.02,4.56,3.02,8.21v27.92h18.61v-27.92c0-11.41-5-18.3-9.19-22.07Z" />
    <path class="cls-1"
        d="M7.1,88.92c.08,0,.16,0,.23,0,2.26-.13,3.98-2.06,3.85-4.31-.07-1.17-.1-2.36-.1-3.53,0-29.6,20.69-54.58,49.48-60.19,2.13,4.42,6.64,7.48,11.86,7.48,7.27,0,13.18-5.91,13.18-13.18s-5.91-13.18-13.18-13.18c-6.44,0-11.81,4.65-12.95,10.76-15.41,2.91-29.49,11.02-39.79,22.99C8.87,48.35,2.91,64.44,2.91,81.07c0,1.33.04,2.67.11,4,.12,2.18,1.93,3.86,4.08,3.86ZM72.44,10.18c2.76,0,5,2.24,5,5s-2.24,5-5,5-5-2.24-5-5,2.24-5,5-5Z" />
    <path class="cls-1"
        d="M105.29,132.88c-9.81,6.24-21.17,9.53-32.86,9.53-4.01,0-7.96-.41-11.81-1.16v-28.49c3.72,1.25,7.69,1.93,11.82,1.93,20.55,0,37.26-16.71,37.26-37.26s-16.71-37.26-37.26-37.26-37.26,16.71-37.26,37.26v52.37c-3.29-2.52-6.34-5.39-9.11-8.59,1.45-2.11,2.29-4.67,2.29-7.42,0-7.27-5.91-13.18-13.18-13.18s-13.18,5.91-13.18,13.18,5.91,13.18,13.18,13.18c1.54,0,3-.28,4.38-.76,13.25,15.53,32.39,24.39,52.88,24.39,13.24,0,26.12-3.74,37.25-10.81,1.91-1.21,2.47-3.74,1.26-5.65-1.21-1.91-3.74-2.47-5.65-1.26ZM72.44,65.62c6.52,0,11.81,5.3,11.81,11.82s-5.3,11.82-11.81,11.82-11.82-5.3-11.82-11.82,5.3-11.82,11.82-11.82ZM10.18,113.79c0-2.76,2.24-5,5-5s5,2.24,5,5-2.24,5-5,5-5-2.24-5-5Z" />
    <path class="cls-1"
        d="M138.06,104.03c2.58-7.36,3.9-15.08,3.9-22.96,0-26.38-14.64-50.17-38.2-62.08-2.01-1.02-4.48-.21-5.49,1.8-1.02,2.02-.21,4.48,1.8,5.5,20.79,10.51,33.71,31.5,33.71,54.78,0,6.73-1.08,13.31-3.21,19.61-.44-.04-.88-.07-1.34-.07-7.27,0-13.18,5.91-13.18,13.18s5.91,13.18,13.18,13.18,13.18-5.91,13.18-13.18c0-3.87-1.69-7.35-4.35-9.76ZM129.24,118.79c-2.76,0-5-2.24-5-5s2.24-5,5-5,5,2.24,5,5-2.24,5-5,5Z" />
</svg>