<?xml version="1.0" encoding="UTF-8"?>
<svg id="Layer_1" xmlns="http://www.w3.org/2000/svg" viewBox="0 0 512 512">
    <defs>
        <style>
            .cls-1 {
                fill: #000;
            }

            .cls-1,
            .cls-2,
            .cls-3 {
                stroke-width: 0px;
            }

            .cls-2 {
                opacity: 0;
            }

            .cls-2,
            .cls-3 {
                fill: #fff;
            }
        </style>
    </defs>
    <rect class="cls-1" width="512" height="512" />
    <path class="cls-3"
        d="M112.23,273.29c.17,0,.35,0,.52-.01,4.96-.28,8.76-4.54,8.47-9.5-.15-2.56-.22-5.18-.22-7.77,0-65.14,45.53-120.11,108.89-132.45,4.69,9.72,14.61,16.45,26.11,16.45,15.99,0,29-13.01,29-29s-13.01-29-29-29c-14.17,0-25.98,10.23-28.49,23.69-33.92,6.4-64.89,24.24-87.56,50.6-23.83,27.71-36.95,63.12-36.95,99.71,0,2.94.08,5.9.25,8.8.27,4.79,4.24,8.49,8.98,8.49ZM256,100c6.06,0,11,4.93,11,11s-4.94,11-11,11-11-4.93-11-11,4.94-11,11-11Z" />
    <path class="cls-3"
        d="M328.31,370.02c-21.59,13.72-46.6,20.98-72.31,20.98-8.83,0-17.52-.9-26-2.55v-62.69c8.18,2.74,16.92,4.24,26,4.24,45.22,0,82-36.78,82-82s-36.78-82-82-82-82,36.78-82,82v115.23c-7.24-5.55-13.95-11.87-20.05-18.91,3.18-4.65,5.05-10.27,5.05-16.32,0-15.99-13.01-29-29-29s-29,13.01-29,29,13.01,29,29,29c3.38,0,6.61-.61,9.63-1.68,29.16,34.18,71.27,53.68,116.37,53.68,29.14,0,57.48-8.22,81.96-23.79,4.2-2.67,5.43-8.23,2.77-12.42-2.67-4.2-8.23-5.43-12.42-2.77ZM256,222c14.34,0,26,11.66,26,26s-11.66,26-26,26-26-11.66-26-26,11.66-26,26-26ZM119,328c0-6.07,4.94-11,11-11s11,4.93,11,11-4.94,11-11,11-11-4.93-11-11Z" />
    <path class="cls-3"
        d="M400.42,306.52c5.67-16.21,8.58-33.17,8.58-50.52,0-58.06-32.21-110.41-84.05-136.62-4.43-2.25-9.85-.46-12.09,3.97-2.24,4.44-.46,9.85,3.97,12.09,45.75,23.13,74.17,69.33,74.17,120.56,0,14.8-2.39,29.29-7.06,43.15-.97-.1-1.95-.15-2.94-.15-15.99,0-29,13.01-29,29s13.01,29,29,29,29-13.01,29-29c0-8.52-3.71-16.17-9.58-21.48ZM381,339c-6.06,0-11-4.93-11-11s4.94-11,11-11,11,4.93,11,11-4.94,11-11,11Z" />
    <circle class="cls-2" cx="256" cy="256" r="200" />
</svg>